<?xml version="1.0" encoding="utf-8"?>
<!-- Generator: Adobe Illustrator 22.1.0, SVG Export Plug-In . SVG Version: 6.00 Build 0)  -->
<svg version="1.1" id="Layer_1" xmlns="http://www.w3.org/2000/svg" xmlns:xlink="http://www.w3.org/1999/xlink" x="0px" y="0px"
	 viewBox="0 0 64 64" style="enable-background:new 0 0 64 64;" xml:space="preserve">
<g transform="translate(0.000000,512.000000) scale(0.100000,-0.100000)">
	<path d="M307.6,5047.5c-7.4-1.4-19.6-5.8-24.9-9.1c-2.5-1.4-7.2-5.1-10.5-7.8c-3.3-2.7-49.9-51.8-103.6-108.8
		C58.5,4804.6,66,4814,66.8,4797.9c0.4-9.8,2.5-14.7,8.4-20.7c5.8-5.8,12.2-8.5,20.6-8.5c13.2,0,6.4-6.6,116.4,110.1
		c89.2,94.6,99.9,105.5,103.8,106.6c9.7,2.7,2.5,9.4,112-106.6c54.7-58.1,100.9-106.2,102.6-107c1.7-0.8,5.6-2,8.7-2.7
		c10.1-2,19.6,1.3,26.5,9.1c5.6,6.1,7.2,10.4,7.6,19.9c0.8,15.1,1.2,14.3-45,63.5l-40,42.7v49.4c0,47-0.2,49.9-1.9,55.2
		c-2.4,6.6-7.9,12.9-14.6,16.7c-6.6,3.6-18.5,3.6-25.1,0.2c-5.4-2.9-11.3-8.7-14.1-14.4c-1.9-3.8-2.3-6.1-2.5-24.7l-0.3-20.2
		L399,4999c-30.1,31.7-37.1,38-47,42.5C339.4,5047.3,320.1,5049.8,307.6,5047.5z"/>
	<path d="M313.9,4926.9c-1-0.5-41.4-42.8-89.4-93.8l-87.3-92.7l-0.6-5.8c-0.3-3.1-0.4-36.3-0.3-73.5c0.3-61.8,0.6-68.3,2.3-73.5
		c6.4-20.5,21.2-35.1,40-39.4c5.2-1.3,16.2-1.6,51.1-1.6h44.3v68.8v68.8h46.5h46.5v-68.8v-68.8h44.4c34.7,0,45.7,0.3,51.1,1.6
		c18.7,4.2,33.6,19,40,39.4c1.6,5.2,1.7,11.8,2.3,73.5c0.2,37.4,0.2,70.4-0.3,73.5l-0.6,5.8l-87.9,93.3l-88.2,93.5l-5.8,0.3
		C318.4,4927.6,315,4927.3,313.9,4926.9z"/>
</g>
</svg>
