<?xml version="1.0" encoding="utf-8"?>
<!-- Generator: Adobe Illustrator 22.1.0, SVG Export Plug-In . SVG Version: 6.00 Build 0)  -->
<svg version="1.1" id="Layer_1" xmlns="http://www.w3.org/2000/svg" xmlns:xlink="http://www.w3.org/1999/xlink" x="0px" y="0px"
	 viewBox="0 0 64 64" style="enable-background:new 0 0 64 64;" xml:space="preserve">
<g transform="translate(0.000000,512.000000) scale(0.100000,-0.100000)">
	<path d="M303.1,5072c-8.3-1.5-21.9-6.3-27.8-9.9c-2.8-1.5-8-5.5-11.7-8.5c-3.7-2.9-55.7-56.3-115.7-118.3
		c-123-127.3-114.5-117.1-113.6-134.5c0.5-10.6,2.8-16,9.4-22.5c6.4-6.3,13.6-9.2,23-9.2c14.7,0,7.1-7.2,129.9,119.7
		c99.6,102.8,111.5,114.7,115.9,115.9c10.8,2.9,2.8,10.2,125.1-115.9c61-63.1,112.7-115.4,114.5-116.3c1.9-0.9,6.2-2.2,9.7-2.9
		c11.3-2.2,21.9,1.4,29.5,9.9c6.2,6.6,8,11.3,8.5,21.6c0.9,16.4,1.4,15.5-50.3,69l-44.6,46.4v53.7c0,51.1-0.2,54.2-2.1,60
		c-2.7,7.2-8.8,14-16.3,18.1c-7.4,3.9-20.7,3.9-28.1,0.2c-6-3.1-12.6-9.5-15.7-15.7c-2.1-4.1-2.5-6.6-2.8-26.8l-0.4-22l-34.3,35.3
		c-33.6,34.4-41.4,41.3-52.4,46.2C338.6,5071.8,317,5074.5,303.1,5072z"/>
	<path d="M310.1,4940.9c-1.2-0.5-46.2-46.5-99.8-101.9l-97.5-100.7l-0.7-6.3c-0.4-3.4-0.5-39.4-0.4-79.9c0.4-67.2,0.7-74.2,2.5-79.9
		c7.1-22.3,23.7-38.2,44.6-42.8c5.8-1.4,18-1.7,57-1.7h49.4v74.8v74.8h52h52v-74.8v-74.8h49.5c38.7,0,51.1,0.3,57,1.7
		c20.9,4.6,37.5,20.6,44.6,42.8c1.8,5.6,1.9,12.8,2.5,79.9c0.2,40.6,0.2,76.5-0.4,79.9l-0.7,6.3l-98.2,101.4l-98.2,101.6l-6.4,0.3
		C315.1,4941.7,311.4,4941.4,310.1,4940.9z"/>
</g>
</svg>
